<svg id="mermaidChart274" width="100%" xmlns="http://www.w3.org/2000/svg" height="100%" style="max-width:520px;" viewBox="-85 -10 520 696"><style type="text/css" title="mermaid-svg-internal-css">/*  */
*, ::before, ::after { box-sizing: inherit;}
.actor { stroke: rgb(204, 204, 255); fill: rgb(226, 236, 255);}
text.actor { fill: black; stroke: none; font-size: 12px;}
.actor-line { stroke: grey;}
.messageLine0 { stroke-width: 1.5; stroke: black;}
.messageLine1 { stroke-width: 1.5; stroke: black;}
#arrowhead { fill: black;}
.messageText { fill: black; stroke: none; font-size: 12px;}
.labelBox { stroke: rgb(204, 204, 255); fill: rgb(236, 236, 255);}
.labelText { fill: black; stroke: none;}
.loopText { fill: black; stroke: none;}
.loopLine { stroke-width: 2; stroke: rgb(204, 204, 255);}
.actor { stroke: rgb(204, 204, 255); fill: rgb(236, 236, 255);}
text.actor { fill: black; stroke: none;}
.actor-line { stroke: grey;}
.messageLine0 { stroke-width: 1.5; stroke: rgb(51, 51, 51);}
.messageLine1 { stroke-width: 1.5; stroke: rgb(51, 51, 51);}
#arrowhead { fill: rgb(51, 51, 51);}
#crosshead path { fill: rgb(51, 51, 51) !important; stroke: rgb(51, 51, 51) !important;}
.messageText { fill: rgb(51, 51, 51); stroke: none;}
.labelBox { stroke: rgb(204, 204, 255); fill: rgb(236, 236, 255);}
.labelText { fill: black; stroke: none;}
.loopText { fill: black; stroke: none;}
.loopLine { stroke-width: 2; stroke: rgb(204, 204, 255);}
text { font-family: "trebuchet ms", verdana, arial; font-size: 14px;}
/*  */
</style><g></g><g><line id="actor838" x1="75" y1="5" x2="75" y2="685" class="actor-line" stroke-width="0.5px" stroke="#999"></line><rect x="0" y="0" fill="#eaeaea" stroke="#666" width="150" height="65" rx="3" ry="3" class="actor"></rect><text x="75" y="37.5" class="actor" style="text-anchor: middle;">Drive</text></g><g><line id="actor839" x1="275" y1="5" x2="275" y2="685" class="actor-line" stroke-width="0.5px" stroke="#999"></line><rect x="200" y="0" fill="#eaeaea" stroke="#666" width="150" height="65" rx="3" ry="3" class="actor"></rect><text x="275" y="37.5" class="actor" style="text-anchor: middle;">Nuxeo</text></g><defs><marker id="arrowhead" refX="5" refY="2" markerWidth="6" markerHeight="4" orient="auto"><path d="M 0,0 V 4 L6,2 Z"></path></marker></defs><defs><marker id="crosshead" markerWidth="15" markerHeight="8" orient="auto" refX="16" refY="4"><path fill="black" stroke="#000000" stroke-width="1px" d="M 9,2 V 6 L16,4 Z" style="stroke-dasharray: 0, 0;"></path><path fill="none" stroke="#000000" stroke-width="1px" d="M 0,1 L 6,7 M 6,1 L 0,7" style="stroke-dasharray: 0, 0;"></path></marker></defs><g><text x="175" y="118" class="messageText" style="text-anchor: middle;">Access Authentication Page</text><line x1="75" y1="125" x2="275" y2="125" class="messageLine0" stroke-width="2" stroke="black" marker-end="url(#arrowhead)" style="fill: none;"></line></g><g><text x="275" y="153" class="messageText" style="text-anchor: middle;">Authenticate user</text><path d="M 275,160 C 335,150 335,190 275,180" class="messageLine0" stroke-width="2" stroke="black" marker-end="url(#arrowhead)" style="fill: none;"></path></g><g><text x="275" y="218" class="messageText" style="text-anchor: middle;">Generate token</text><path d="M 275,225 C 335,215 335,255 275,245" class="messageLine0" stroke-width="2" stroke="black" marker-end="url(#arrowhead)" style="fill: none;"></path></g><g><text x="175" y="283" class="messageText" style="text-anchor: middle;">Return a token</text><line x1="275" y1="290" x2="75" y2="290" class="messageLine1" stroke-width="2" stroke="black" marker-end="url(#arrowhead)" style="stroke-dasharray: 3, 3; fill: none;"></line></g><g><text x="75" y="318" class="messageText" style="text-anchor: middle;">Store token</text><path d="M 75,325 C 135,315 135,355 75,345" class="messageLine0" stroke-width="2" stroke="black" marker-end="url(#arrowhead)" style="fill: none;"></path></g><g><line x1="-35" y1="75" x2="385" y2="75" stroke-width="2" stroke="#526e52" class="loopLine"></line><line x1="385" y1="75" x2="385" y2="365" stroke-width="2" stroke="#526e52" class="loopLine"></line><line x1="-35" y1="365" x2="385" y2="365" stroke-width="2" stroke="#526e52" class="loopLine"></line><line x1="-35" y1="75" x2="-35" y2="365" stroke-width="2" stroke="#526e52" class="loopLine"></line><rect x="-35" y="75" fill="#526e52" stroke="none" width="50" height="20" rx="0" ry="0" class="labelBox"></rect><text x="-27.5" y="90" fill="white" class="labelText"><tspan x="-27.5">opt</tspan></text><text x="175" y="90" fill="black" class="loopText" style="text-anchor: middle;"><tspan x="175">[ Authentication ]</tspan></text></g><g><text x="175" y="418" class="messageText" style="text-anchor: middle;">Send command with token</text><line x1="75" y1="425" x2="275" y2="425" class="messageLine0" stroke-width="2" stroke="black" marker-end="url(#arrowhead)" style="fill: none;"></line></g><g><text x="275" y="453" class="messageText" style="text-anchor: middle;">Verify token</text><path d="M 275,460 C 335,450 335,490 275,480" class="messageLine0" stroke-width="2" stroke="black" marker-end="url(#arrowhead)" style="fill: none;"></path></g><g><text x="275" y="518" class="messageText" style="text-anchor: middle;">Execute command</text><path d="M 275,525 C 335,515 335,555 275,545" class="messageLine0" stroke-width="2" stroke="black" marker-end="url(#arrowhead)" style="fill: none;"></path></g><g><text x="175" y="583" class="messageText" style="text-anchor: middle;">Result</text><line x1="275" y1="590" x2="75" y2="590" class="messageLine1" stroke-width="2" stroke="black" marker-end="url(#arrowhead)" style="stroke-dasharray: 3, 3; fill: none;"></line></g><g><line x1="65" y1="375" x2="385" y2="375" stroke-width="2" stroke="#526e52" class="loopLine"></line><line x1="385" y1="375" x2="385" y2="600" stroke-width="2" stroke="#526e52" class="loopLine"></line><line x1="65" y1="600" x2="385" y2="600" stroke-width="2" stroke="#526e52" class="loopLine"></line><line x1="65" y1="375" x2="65" y2="600" stroke-width="2" stroke="#526e52" class="loopLine"></line><rect x="65" y="375" fill="#526e52" stroke="none" width="50" height="20" rx="0" ry="0" class="labelBox"></rect><text x="72.5" y="390" fill="white" class="labelText"><tspan x="72.5">loop</tspan></text><text x="225" y="390" fill="black" class="loopText" style="text-anchor: middle;"><tspan x="225">[ For each API ]</tspan></text></g><g><rect x="0" y="620" fill="#eaeaea" stroke="#666" width="150" height="65" rx="3" ry="3" class="actor"></rect><text x="75" y="657.5" class="actor" style="text-anchor: middle;">Drive</text></g><g><rect x="200" y="620" fill="#eaeaea" stroke="#666" width="150" height="65" rx="3" ry="3" class="actor"></rect><text x="275" y="657.5" class="actor" style="text-anchor: middle;">Nuxeo</text></g></svg>