<svg xmlns="http://www.w3.org/2000/svg" xmlns:xlink="http://www.w3.org/1999/xlink" viewBox="0 0 2041 1080.78"><defs><clipPath id="a" transform="translate(-9 -7)"><rect x="580.85" width="336.98" height="187.83" style="fill:none"/></clipPath><clipPath id="b" transform="translate(-9 -7)"><rect x="302.77" y="243.71" width="206.1" height="137.03" style="fill:none"/></clipPath><clipPath id="c" transform="translate(-9 -7)"><rect x="229.7" y="773.92" width="178.26" height="168.26" style="fill:none"/></clipPath><clipPath id="d" transform="translate(-9 -7)"><rect x="1614.75" y="163.19" width="390.2" height="292.61" style="fill:none"/></clipPath><clipPath id="e" transform="translate(-9 -7)"><rect x="1425.55" y="791" width="128.6" height="118.59" style="fill:none"/></clipPath><clipPath id="f" transform="translate(-9 -7)"><rect x="1722" y="742.09" width="337" height="327" style="fill:none"/></clipPath><clipPath id="g" transform="translate(-9 -7)"><rect y="162.49" width="191.29" height="550.11" style="fill:none"/></clipPath><clipPath id="h" transform="translate(-9 -7)"><rect x="642.79" y="908.42" width="333.66" height="180.36" style="fill:none"/></clipPath><clipPath id="i" transform="translate(-9 -7)"><rect x="1218.74" y="158.2" width="200.11" height="179.02" style="fill:none"/></clipPath></defs><title>illus_bgDOC</title><g style="opacity:0.25"><g style="clip-path:url(#a)"><path d="M906.83,96.92s-70.51,87.91-157.49,87.91S591.85,96.92,591.85,96.92,662.36,9,749.34,9,906.83,96.92,906.83,96.92Zm-99.37,0a58.13,58.13,0,1,1-58.12-58.13A58.13,58.13,0,0,1,807.46,96.92Zm-35,0a23.14,23.14,0,1,1-23.14-23.14A23.15,23.15,0,0,1,772.48,96.92Z" transform="translate(-9 -7)" style="fill:none;stroke:#b2b4b5;stroke-linecap:round;stroke-linejoin:round;stroke-width:4px"/></g></g><g style="opacity:0.25"><g style="clip-path:url(#b)"><path d="M475.51,289.41a12.8,12.8,0,1,1-12.8-12.8A12.8,12.8,0,0,1,475.51,289.41ZM313.77,331.3,348.83,309a47.07,47.07,0,0,1,48.64-1.11l99.28,56.85m1.13,13h-184v-125h184Z" transform="translate(-9 -7)" style="fill:none;stroke:#b2b4b5;stroke-linecap:round;stroke-linejoin:round;stroke-width:4px"/></g></g><g style="opacity:0.25"><g style="clip-path:url(#c)"><path d="M356.22,861.05H281.43m37.4-37.39v74.79m0,40.73a78.13,78.13,0,1,0-78.13-78.13A78.13,78.13,0,0,0,318.83,939.18Z" transform="translate(-9 -7)" style="fill:none;stroke:#b2b4b5;stroke-linecap:round;stroke-linejoin:round;stroke-width:4px"/></g></g><g style="opacity:0.25"><g style="clip-path:url(#d)"><path d="M1688.4,339.48h242.52m-242-41.82h242.53m-242-41.82h242.53m-242-41.83h242.53M1994,172.19V391.06H1687.49l-61.74,61.74V172.19Z" transform="translate(-9 -7)" style="fill:none;stroke:#b2b4b5;stroke-linecap:round;stroke-linejoin:round;stroke-width:4px"/></g></g><g style="opacity:0.25"><g style="clip-path:url(#e)"><path d="M1436.66,800.11,1543,906.49m-106.38,0L1543,800.11m.11,33.34V800h-33.46m-73.14,33.45V800H1470m-33.46,73.14v33.45H1470m73.14-33.45v33.45h-33.46" transform="translate(-9 -7)" style="fill:none;stroke:#b2b4b5;stroke-linecap:round;stroke-linejoin:round;stroke-width:4px"/></g></g><g style="opacity:0.25"><g style="clip-path:url(#f)"><path d="M1890.5,1066.09A157.5,157.5,0,1,0,1733,908.59,157.49,157.49,0,0,0,1890.5,1066.09Zm0-251.23v251M1826,879.74l64.88-64.88,64.87,64.88" transform="translate(-9 -7)" style="fill:none;stroke:#b2b4b5;stroke-linecap:round;stroke-linejoin:round;stroke-width:4px"/></g></g><g style="opacity:0.25"><g style="clip-path:url(#g)"><path d="M89.67,410.13v31.65l20.51,20.5M62,401.71l-10.86.75m.75-10.86-.75,10.86m.83,73.06a52.33,52.33,0,1,0,0-74M179.21,525.34H12.08M179.21,343.09H12.08m127.3,258.46-27.71-27.86M78,661.87l-26.7-27.58m97.12-41.82-69.7,69.7-35,11.62h-.49a4.28,4.28,0,0,1-2-.49,5.18,5.18,0,0,1-1.53-1.23,3,3,0,0,1-.49-1.65,6.16,6.16,0,0,1,.25-1.77L50.7,634.29l69.81-69.8a5.88,5.88,0,0,1,8.33,0l19.57,19.66A5.88,5.88,0,0,1,148.4,592.47Zm-38.72-322a37.38,37.38,0,1,1,0-52.87A37.37,37.37,0,0,1,109.68,270.52Zm0,0,36.71,36.71m33.9,402.38H11V171.49H180.29Z" transform="translate(-9 -7)" style="fill:none;stroke:#b2b4b5;stroke-linecap:round;stroke-linejoin:round;stroke-width:4px"/></g></g><g style="opacity:0.25"><g style="clip-path:url(#h)"><path d="M927.12,994.08l-53.38,53.37H692.11m235-91.7,38.32-38.33h-220l-91.7,91.7h38.32m235-53.37-38.33,38.33-15,15H692.11m235-15,38.32-38.33H927.12m-235,53.37-38.32,38.33h38.32m235-53.37h38.32l-91.7,91.7h-220l38.32-38.33" transform="translate(-9 -7)" style="fill:none;stroke:#b2b4b5;stroke-linecap:round;stroke-linejoin:round;stroke-width:4px"/></g></g><g style="opacity:0.25"><g style="clip-path:url(#i)"><path d="M1407.85,207l-.21,113-73.17-39.8.21-113ZM1230,181.92l104.73-14.72-.21,113-31.32,4.4L1229.74,295Zm73.4,152.29L1229.74,295l.21-113,73.61,40.22ZM1407.85,207l-.21,113-104.29,14.17.21-112.07Z" transform="translate(-9 -7)" style="fill:none;stroke:#b2b4b5;stroke-linecap:round;stroke-linejoin:round;stroke-width:4px"/></g></g></svg>
